<?xml version="1.0" encoding="utf-8"?>
<!-- Generator: Adobe Illustrator 24.1.2, SVG Export Plug-In . SVG Version: 6.00 Build 0)  -->
<svg version="1.1" id="Ebene_1" xmlns="http://www.w3.org/2000/svg" xmlns:xlink="http://www.w3.org/1999/xlink" x="0px" y="0px"
	 viewBox="0 0 111.6088104 51.0236206" style="enable-background:new 0 0 111.6088104 51.0236206;" xml:space="preserve">
<style type="text/css">
	.st0{fill-rule:evenodd;clip-rule:evenodd;}
</style>
<g>
	<g>
		<path d="M5.2997365,39.2620583H2.9037824v5.4634819c0,0.375103,0.102792,0.6650848,0.3087366,0.8706665
			c0.2055838,0.2063065,0.4897947,0.3087387,0.8529928,0.3087387c0.205584,0,0.4144139-0.0274124,0.6261292-0.0815125
			c0.2117157-0.0541039,0.4144139-0.124073,0.6080956-0.2084694l0.090529,0.9795876
			c-0.2055836,0.0728569-0.4418249,0.1392212-0.7076411,0.1998138c-0.2661772,0.0605927-0.5024185,0.090889-0.7080023,0.090889
			c-0.3873632,0-0.7199042-0.0577087-0.9979835-0.1724014c-0.2788007-0.1146927-0.5024183-0.269062-0.6715741-0.4631042
			C2.1351871,46.056427,2.011476,45.8299217,1.9328493,45.569519c-0.0789875-0.2604065-0.1179402-0.5417328-0.1179402-0.8439789
			v-5.4634819H0v-0.97995h1.8149091v-2.4139862h1.0888733v2.4139862h2.3959541V39.2620583z"/>
		<path d="M14.6469507,45.0883789c-0.4237909,0.6412773-0.9471283,1.1014977-1.5700111,1.3792152
			c-0.6236048,0.2784386-1.3099661,0.4176598-2.0601673,0.4176598c-0.6416378,0-1.2223225-0.1089249-1.7424135-0.3267708
			c-0.5204525-0.2178459-0.9680481-0.5229759-1.3431482-0.916832c-0.3751006-0.3931351-0.6625571-0.8584023-0.86201-1.3972473
			c-0.1998129-0.5381241-0.2997193-1.1339569-0.2997193-1.7874985c0-0.6290169,0.1027918-1.2104225,0.3087363-1.742775
			c0.205584-0.5323524,0.4959264-0.9954605,0.8710265-1.3885918c0.3751006-0.3931351,0.8169255-0.7015114,1.3251147-0.9254875
			c0.5081892-0.2239799,1.0708399-0.3357887,1.687952-0.3357887c0.6412773,0,1.2071743,0.1118088,1.696969,0.3357887
			c0.4901552,0.2239761,0.9013224,0.5208092,1.2342243,0.8894196c0.332902,0.3686066,0.5835695,0.789875,0.7534466,1.2616348
			c0.1691561,0.4717598,0.2539148,0.949295,0.2539148,1.4340401v0.7617416H7.8587151
			c0,0.2301102,0.045445,0.5236969,0.1359739,0.880043c0.0908899,0.3577881,0.2571602,0.7054787,0.4991722,1.0437889
			c0.242012,0.3390312,0.5655355,0.629734,0.970933,0.8713875c0.4053974,0.2423706,0.9287338,0.3628387,1.5700121,0.3628387
			c0.5565186,0,1.0950041-0.1327286,1.6154566-0.3989067c0.5200911-0.2661781,0.9193563-0.6290131,1.1977968-1.0892334
			L14.6469507,45.0883789z M13.8119917,41.7672958c0-0.3750992-0.0757408-0.7263947-0.2268629-1.0531654
			c-0.1514835-0.3267708-0.3570671-0.6138649-0.6171131-0.862011c-0.2604055-0.2481422-0.5691423-0.4450684-0.925849-0.5900612
			c-0.3570662-0.144989-0.7350521-0.2178459-1.1343174-0.2178459c-0.592948,0-1.085988,0.1211853-1.4791222,0.3628387
			c-0.3934956,0.2423706-0.7051172,0.520813-0.934866,0.8353195c-0.2301102,0.3145065-0.3931341,0.6203575-0.4901552,0.916111
			c-0.0966606,0.2971954-0.1449909,0.4991722-0.1449909,0.6088142H13.8119917z"/>
		<path d="M24.3573647,45.4331818c-0.4115295,0.4962883-0.8775196,0.862011-1.3976097,1.0978928
			c-0.5204525,0.235878-1.0831032,0.3541794-1.687952,0.3541794c-0.6416397,0-1.2342262-0.1089249-1.7788429-0.3267708
			c-0.5442562-0.2178459-1.0102463-0.5229759-1.3976097-0.916832c-0.3873634-0.3931351-0.6896076-0.8584023-0.9074535-1.3972473
			c-0.2178478-0.5381241-0.3267708-1.1281891-0.3267708-1.7701874c0-0.6405563,0.108923-1.2306175,0.3267708-1.7687416
			c0.2178459-0.5388451,0.5200901-1.0041161,0.9074535-1.3979721c0.3873634-0.3931313,0.8533535-0.6986237,1.3976097-0.9164696
			c0.5446167-0.2178459,1.1372032-0.3267708,1.7788429-0.3267708c0.6171112,0,1.1887798,0.1269569,1.7150021,0.3812332
			c0.5265827,0.2539139,0.9954586,0.610981,1.4069862,1.0711975l-0.8713856,0.6528206
			c-0.3148689-0.3505745-0.6596718-0.6261292-1.0344124-0.825943c-0.3754616-0.1990929-0.7804966-0.2993584-1.2161903-0.2993584
			c-0.5081902,0-0.9680481,0.090889-1.3795776,0.271946c-0.4115276,0.1817818-0.7621021,0.4270401-1.0524445,0.735775
			c-0.2907028,0.3087387-0.5114346,0.6708527-0.6625576,1.0892334c-0.1514835,0.4169388-0.2268639,0.86129-0.2268639,1.3330498
			c0,0.4724846,0.0753803,0.9175529,0.2268639,1.3344917c0.151123,0.4176598,0.3718548,0.7804985,0.6625576,1.0892334
			c0.2903423,0.3080177,0.6409168,0.5532761,1.0524445,0.735054c0.4115295,0.181057,0.8713875,0.2719498,1.3795776,0.2719498
			c0.4598579,0,0.8804035-0.10532,1.2612743-0.3173943c0.3812313-0.2113533,0.7108879-0.4926796,0.9893284-0.8439751
			L24.3573647,45.4331818z"/>
		<path d="M26.0633488,32.9459457h1.0888748v6.8059082h0.0364265c0.2178478-0.4594994,0.5806847-0.8555183,1.0888748-1.1884193
			c0.5081882-0.332901,1.1011353-0.4991722,1.778841-0.4991722c0.6535397,0,1.1855335,0.1027908,1.5970631,0.3083763
			c0.4111652,0.2059441,0.7350521,0.4746475,0.9712925,0.8079071c0.2358818,0.3332634,0.3992653,0.7170181,0.4897957,1.1527138
			c0.090889,0.4356918,0.1363335,0.8829269,0.1363335,1.3431473v4.9910011h-1.0892334v-4.9369011
			c0-0.3383102-0.0302963-0.6686859-0.0905304-0.9889641c-0.0605927-0.3202782-0.1666298-0.6080971-0.3177528-0.8627319
			c-0.1514816-0.2539139-0.3628368-0.4558907-0.6351452-0.6073761c-0.2723083-0.1514816-0.6261292-0.2272224-1.0618229-0.2272224
			c-0.3992653,0-0.7776127,0.0699692-1.1343174,0.2084694c-0.3570671,0.1399422-0.6658039,0.3512955-0.9258499,0.6355057
			c-0.2604065,0.2849312-0.4659901,0.6412773-0.6171112,1.0712013c-0.1514835,0.429924-0.2268639,0.934864-0.2268639,1.5148277
			v4.1931915h-1.0888748V32.9459457z"/>
		<path d="M36.154995,40.6419945c0-0.1572533-0.0061302-0.3476868-0.0180359-0.5720253
			c-0.0122604-0.2243423-0.0212784-0.4508438-0.0274086-0.680954c-0.006134-0.2293892-0.0151482-0.4443474-0.02705-0.6441612
			c-0.0122643-0.1998138-0.0183945-0.3538208-0.0183945-0.4627457h1.0892334
			c0.0119019,0.3148689,0.0209198,0.617115,0.02705,0.907093c0.0061302,0.2907028,0.0209198,0.4789772,0.0454445,0.5626526
			h0.0544624c0.2178459-0.4594994,0.5806847-0.8555183,1.088871-1.1884193
			c0.5081902-0.332901,1.1011391-0.4991722,1.7788429-0.4991722c0.6535416,0,1.1855354,0.1027908,1.5970612,0.3083763
			c0.411171,0.2059441,0.735054,0.4746475,0.9712944,0.8079071c0.2358818,0.3332634,0.3992653,0.7170181,0.4897957,1.1527138
			c0.090889,0.4356918,0.1363335,0.8829269,0.1363335,1.3431473v4.9910011h-1.0892334v-4.9369011
			c0-0.3383102-0.0302963-0.6686859-0.0905304-0.9889641c-0.0605927-0.3202782-0.1666298-0.6080971-0.3177528-0.8627319
			c-0.1514816-0.2539139-0.3628349-0.4558907-0.6351433-0.6073761c-0.2723083-0.1514816-0.6261292-0.2272224-1.0618248-0.2272224
			c-0.3992653,0-0.7776108,0.0699692-1.1343193,0.2084694c-0.3570633,0.1399422-0.665802,0.3512955-0.9258461,0.6355057
			c-0.2604065,0.2849312-0.465992,0.6412773-0.617115,1.0712013c-0.1514816,0.429924-0.2268639,0.934864-0.2268639,1.5148277
			v4.1931915h-1.088871V40.6419945z"/>
		<path d="M45.7745171,42.4742165c0-0.6405563,0.1089249-1.2306175,0.3267708-1.7687416
			c0.2178459-0.5388451,0.520092-1.0041161,0.9074554-1.3979721c0.3873634-0.3931313,0.8533516-0.6986237,1.3976097-0.9164696
			c0.5446167-0.2178459,1.1372032-0.3267708,1.7788391-0.3267708c0.6412773,0,1.2309799,0.1089249,1.7694664,0.3267708
			s1.0044746,0.5233383,1.3976097,0.9164696c0.3931351,0.393856,0.6989861,0.859127,0.916832,1.3979721
			c0.2178459,0.5381241,0.3264084,1.1281853,0.3264084,1.7687416c0,0.6419983-0.1085625,1.2320633-0.3264084,1.7701874
			c-0.2178459,0.5388451-0.5236969,1.0041122-0.916832,1.3972473c-0.3931351,0.393856-0.8591232,0.6989861-1.3976097,0.916832
			s-1.1281891,0.3267708-1.7694664,0.3267708c-0.6416359,0-1.2342224-0.1089249-1.7788391-0.3267708
			c-0.5442581-0.2178459-1.0102463-0.5229759-1.3976097-0.916832c-0.3873634-0.3931351-0.6896095-0.8584023-0.9074554-1.3972473
			C45.8834419,43.7062798,45.7745171,43.1162148,45.7745171,42.4742165z M46.8637505,42.4742165
			c0,0.4724846,0.0753822,0.9175529,0.2268639,1.3344917c0.151123,0.4176598,0.3718567,0.7804985,0.6625595,1.0892334
			c0.2903404,0.3080177,0.6409149,0.5532761,1.0524445,0.735054c0.4115295,0.181057,0.8713875,0.2719498,1.3795738,0.2719498
			c0.5081902,0,0.9680481-0.0908928,1.3795776-0.2719498c0.4111671-0.181778,0.762104-0.4270363,1.0524445-0.735054
			c0.2903442-0.3087349,0.5110741-0.6715736,0.6625595-1.0892334c0.1511192-0.4169388,0.2268639-0.8620071,0.2268639-1.3344917
			c0-0.4717598-0.0757446-0.916111-0.2268639-1.3330498c-0.1514854-0.4183807-0.3722153-0.7804947-0.6625595-1.0892334
			c-0.2903404-0.3087349-0.6412773-0.5539932-1.0524445-0.735775c-0.4115295-0.181057-0.8713875-0.271946-1.3795776-0.271946
			c-0.5081863,0-0.9680443,0.090889-1.3795738,0.271946c-0.4115295,0.1817818-0.762104,0.4270401-1.0524445,0.735775
			c-0.2907028,0.3087387-0.5114365,0.6708527-0.6625595,1.0892334
			C46.9391327,41.5581055,46.8637505,42.0024567,46.8637505,42.4742165z"/>
		<path d="M57.2093086,32.9459457h1.0888748V46.667408h-1.0888748V32.9459457z"/>
		<path d="M60.9116249,42.4742165c0-0.6405563,0.1089211-1.2306175,0.3267708-1.7687416
			c0.2178459-0.5388451,0.5204506-1.0041161,0.907093-1.3979721c0.3880844-0.3931313,0.8540726-0.6986237,1.3979683-0.9164696
			c0.5446167-0.2178459,1.1368408-0.3267708,1.7788467-0.3267708c0.6412735,0,1.2306137,0.1089249,1.7694626,0.3267708
			c0.5388412,0.2178459,1.004837,0.5233383,1.3972473,0.9164696c0.3938522,0.393856,0.699707,0.859127,0.9175568,1.3979721
			c0.2178421,0.5381241,0.3260422,1.1281853,0.3260422,1.7687416c0,0.6419983-0.1082001,1.2320633-0.3260422,1.7701874
			c-0.2178497,0.5388451-0.5237045,1.0041122-0.9175568,1.3972473c-0.3924103,0.393856-0.8584061,0.6989861-1.3972473,0.916832
			c-0.5388489,0.2178459-1.1281891,0.3267708-1.7694626,0.3267708c-0.6420059,0-1.23423-0.1089249-1.7788467-0.3267708
			c-0.5438957-0.2178459-1.0098839-0.5229759-1.3979683-0.916832c-0.3866425-0.3931351-0.6892471-0.8584023-0.907093-1.3972473
			C61.020546,43.7062798,60.9116249,43.1162148,60.9116249,42.4742165z M62.0012169,42.4742165
			c0,0.4724846,0.0750237,0.9175529,0.2265053,1.3344917c0.1514816,0.4176598,0.3722153,0.7804985,0.6621971,1.0892334
			c0.2907028,0.3080177,0.6412773,0.5532761,1.0531654,0.735054c0.411171,0.181057,0.8713837,0.2719498,1.3792191,0.2719498
			c0.5078278,0,0.9680405-0.0908928,1.3792114-0.2719498c0.411171-0.181778,0.7624664-0.4270363,1.0531693-0.735054
			c0.289978-0.3087349,0.5107117-0.6715736,0.6621933-1.0892334c0.1514816-0.4169388,0.2265015-0.8620071,0.2265015-1.3344917
			c0-0.4717598-0.0750198-0.916111-0.2265015-1.3330498c-0.1514816-0.4183807-0.3722153-0.7804947-0.6621933-1.0892334
			c-0.2907028-0.3087349-0.6419983-0.5539932-1.0531693-0.735775c-0.411171-0.181057-0.8713837-0.271946-1.3792114-0.271946
			c-0.5078354,0-0.9680481,0.090889-1.3792191,0.271946c-0.4118881,0.1817818-0.7624626,0.4270401-1.0531654,0.735775
			c-0.2899818,0.3087387-0.5107155,0.6708527-0.6621971,1.0892334
			C62.0762405,41.5581055,62.0012169,42.0024567,62.0012169,42.4742165z"/>
		<path d="M80.5867233,46.1227913c0,1.0409012-0.1514816,1.8812714-0.4537277,2.5232697
			c-0.3029633,0.6412773-0.6809464,1.1368446-1.1346741,1.4881401c-0.4537277,0.3505745-0.9406433,0.5864563-1.4607315,0.7076416
			c-0.520813,0.1211853-0.9925766,0.181778-1.4160004,0.181778c-0.4234314,0-0.8374863-0.0396729-1.2428818-0.1182976
			c-0.4054031-0.0786285-0.7898788-0.1933212-1.1527176-0.3448067c-0.3635559-0.1514816-0.6924896-0.3354263-0.9896851-0.5532722
			c-0.2957535-0.2178459-0.5532761-0.465992-0.7711182-0.7444305l0.8533478-0.7985306
			c0.3866425,0.5446167,0.8713913,0.9435234,1.451355,1.1981583c0.5814056,0.2539139,1.1988754,0.3808708,1.8516998,0.3808708
			c0.5561523,0,1.0257492-0.0728569,1.4066238-0.2178459c0.3815918-0.1449928,0.6960983-0.3354263,0.9442444-0.5713081
			c0.2474213-0.2366028,0.4414597-0.4962883,0.5799637-0.7804985c0.1399384-0.2849312,0.2423706-0.5691414,0.3087311-0.8533516
			c0.0663681-0.2842102,0.106041-0.5532761,0.1183014-0.8079109c0.0115433-0.2539139,0.0180359-0.4594955,0.0180359-0.6167488
			v-1.1620903h-0.0360641c-0.3152313,0.5085487-0.7415466,0.9081726-1.2796707,1.1981544
			c-0.5388489,0.2907028-1.1707458,0.4356956-1.8964233,0.4356956c-0.6174698,0-1.1981583-0.1118088-1.742775-0.3354263
			c-0.5446167-0.2243385-1.0199814-0.5323563-1.4246597-0.9262085c-0.4061203-0.3931351-0.7263947-0.8497467-0.9615555-1.3705597
			c-0.2366028-0.519371-0.3549042-1.076252-0.3549042-1.6691971c0-0.5929489,0.1183014-1.1498299,0.3549042-1.6699181
			c0.2351608-0.520092,0.5554352-0.9738197,0.9615555-1.3611832c0.4046783-0.3873634,0.880043-0.6957397,1.4246597-0.9258499
			c0.5446167-0.2297478,1.1253052-0.3448029,1.742775-0.3448029c0.7256775,0,1.3575745,0.144989,1.8964233,0.4356918
			c0.5381241,0.2903442,0.9644394,0.6892471,1.2796707,1.1977997h0.0360641v-1.4156456h1.0892334V46.1227913z
			 M79.5342789,42.3660164c0-0.4602203-0.0880051-0.8923073-0.2640152-1.2984276
			c-0.1745605-0.4046745-0.4111633-0.75597-0.7069168-1.0517235c-0.2971954-0.2971954-0.6477737-0.5323524-1.0531693-0.7083626
			c-0.4053955-0.1752853-0.8382034-0.2632904-1.297699-0.2632904c-0.4595032,0-0.8923111,0.0880051-1.2977066,0.2632904
			c-0.4053955,0.1760101-0.7559738,0.4111671-1.0531693,0.7083626c-0.2957458,0.2957535-0.5323486,0.647049-0.7076416,1.0517235
			c-0.1752853,0.4061203-0.2632904,0.8382072-0.2632904,1.2984276c0,0.4602165,0.0880051,0.8923035,0.2632904,1.2977028
			c0.175293,0.4053955,0.4118958,0.756691,0.7076416,1.0524445c0.2971954,0.2964745,0.6477737,0.5323524,1.0531693,0.7076416
			c0.4053955,0.1760101,0.8382034,0.2632904,1.2977066,0.2632904c0.4594955,0,0.8923035-0.0872803,1.297699-0.2632904
			c0.4053955-0.1752892,0.7559738-0.4111671,1.0531693-0.7076416c0.2957535-0.2957535,0.5323563-0.647049,0.7069168-1.0524445
			C79.4462738,43.2583199,79.5342789,42.8262329,79.5342789,42.3660164z"/>
		<path d="M90.6603317,45.0883789c-0.4241486,0.6412773-0.9478455,1.1014977-1.5703659,1.3792152
			c-0.62397,0.2784386-1.309967,0.4176598-2.060173,0.4176598c-0.6412735,0-1.2226791-0.1089249-1.7420502-0.3267708
			c-0.520813-0.2178459-0.9680481-0.5229759-1.3431473-0.916832c-0.3750992-0.3931351-0.6629181-0.8584023-0.8627319-1.3972473
			c-0.1990891-0.5381241-0.2993622-1.1339569-0.2993622-1.7874985c0-0.6290169,0.103157-1.2104225,0.3087387-1.742775
			s0.4955673-0.9954605,0.8706665-1.3885918c0.3750992-0.3931351,0.8172836-0.7015114,1.3258362-0.9254875
			c0.5078278-0.2239799,1.0704803-0.3357887,1.6879501-0.3357887c0.6405563,0,1.2068176,0.1118088,1.6966095,0.3357887
			c0.4905167,0.2239761,0.9016876,0.5208092,1.2342224,0.8894196c0.3325424,0.3686066,0.5835724,0.789875,0.7538071,1.2616348
			c0.1688004,0.4717598,0.2539215,0.949295,0.2539215,1.4340401v0.7617416h-7.042511
			c0,0.2301102,0.0454407,0.5236969,0.1363297,0.880043c0.090889,0.3577881,0.2567978,0.7054787,0.499176,1.0437889
			c0.2416458,0.3390312,0.5655365,0.629734,0.970932,0.8713875c0.4053955,0.2423706,0.9283752,0.3628387,1.5696487,0.3628387
			c0.5568771,0,1.0950089-0.1327286,1.6158218-0.3989067c0.5193634-0.2661781,0.9189911-0.6290131,1.1974335-1.0892334
			L90.6603317,45.0883789z M89.8250122,41.7672958c0-0.3750992-0.075737-0.7263947-0.2265015-1.0531654
			c-0.1514816-0.3267708-0.3577881-0.6138649-0.6174698-0.862011c-0.2604065-0.2481422-0.5691452-0.4450684-0.9262085-0.5900612
			c-0.3563461-0.144989-0.7343369-0.2178459-1.1339569-0.2178459c-0.5929489,0-1.0863495,0.1211853-1.4787674,0.3628387
			c-0.3938522,0.2423706-0.7054749,0.520813-0.9348602,0.8353195c-0.230835,0.3145065-0.3938599,0.6203575-0.4905167,0.916111
			c-0.0966644,0.2971954-0.144989,0.4991722-0.144989,0.6088142H89.8250122z"/>
		<path d="M97.5751648,33.1637917L98.518692,33.4902l-5.4995499,13.8307495l-0.9615555-0.3267708L97.5751648,33.1637917z"/>
		<path d="M99.9707642,34.9606667c0-0.2297478,0.0786209-0.4234314,0.235878-0.5810432
			c0.1572571-0.1568947,0.3505707-0.2358818,0.5814056-0.2358818c0.2293854,0,0.4227066,0.0789871,0.5799637,0.2358818
			c0.1572495,0.1576118,0.2366028,0.3512955,0.2366028,0.5810432s-0.0793533,0.4234314-0.2366028,0.5806847
			c-0.1572571,0.1572533-0.3505783,0.2358818-0.5799637,0.2358818c-0.230835,0-0.4241486-0.0786285-0.5814056-0.2358818
			S99.9707642,35.1904144,99.9707642,34.9606667z M100.2427063,38.2821083h1.0892334v8.3852997h-1.0892334V38.2821083z"/>
		<path d="M104.4178696,40.6419945c0-0.1572533-0.0064926-0.3476868-0.0187607-0.5720253
			c-0.0115433-0.2243423-0.0209198-0.4508438-0.0274124-0.680954c-0.0057678-0.2293892-0.0144272-0.4443474-0.0266876-0.6441612
			s-0.0180359-0.3538208-0.0180359-0.4627457h1.0892334c0.0115433,0.3148689,0.0202026,0.617115,0.0266953,0.907093
			c0.0064926,0.2907028,0.0209198,0.4789772,0.0454407,0.5626526h0.0548248
			c0.2178497-0.4594994,0.5799637-0.8555183,1.0885162-1.1884193c0.5085449-0.332901,1.1014938-0.4991722,1.7788391-0.4991722
			c0.6535416,0,1.185173,0.1027908,1.5970612,0.3083763c0.411171,0.2059441,0.735054,0.4746475,0.9716568,0.8079071
			c0.2351532,0.3332634,0.3989029,0.7170181,0.4890747,1.1527138c0.090889,0.4356918,0.1370544,0.8829269,0.1370544,1.3431473
			v4.9910011h-1.0892334v-4.9369011c0-0.3383102-0.0303116-0.6686859-0.090889-0.9889641
			c-0.0606003-0.3202782-0.1666336-0.6080971-0.3173981-0.8627319c-0.1514816-0.2539139-0.3635559-0.4558907-0.6355057-0.6073761
			c-0.2719498-0.1514816-0.6261292-0.2272224-1.061821-0.2272224c-0.3989029,0-0.7776108,0.0699692-1.1346817,0.2084694
			c-0.3563461,0.1399422-0.6650772,0.3512955-0.9254837,0.6355057c-0.2604065,0.2849312-0.4659958,0.6412773-0.6167526,1.0712013
			c-0.1514816,0.429924-0.2272263,0.934864-0.2272263,1.5148277v4.1931915h-1.0885086V40.6419945z"/>
	</g>
	<path d="M30.8383923,30.0380859h-6.469265l-1.4915733-10.978672l-0.2948456-2.5842361l-0.2254696-3.1045542
		c-0.1621666,1.0987349-0.4798489,2.4397049-0.9539146,4.023778l-0.2254696,0.7457867l-3.4514313,11.8978977h-4.6134691
		L9.6615229,18.1401882l-0.2081261-0.7457867c-0.4743547-1.5609474-0.792037-2.8964262-0.9539127-4.0064335
		c0,0.4743547-0.0234146,0.9481316-0.069376,1.4221973c-0.0809383,0.6477938-0.138751,1.1273518-0.173439,1.4395409
		c-0.0927896,1.0406322-0.2023449,1.9772015-0.3295331,2.8097076l-1.4915733,10.978672H0.0009861L3.9207013,4.646656h6.8508301
		l3.8329954,13.0946236l0.138751,0.4509411c0.3468781,1.1681099,0.5723476,2.167984,0.6764116,3.0004902
		c0-0.2194004,0.0173435-0.4133625,0.0520315-0.5810204c0.034688-0.1673679,0.1066647-0.4943008,0.2167978-0.979929
		c0.1098452-0.4856281,0.2801037-1.1273518,0.5116444-1.925169L20.0678463,4.646656h6.8681736L30.8383923,30.0380859z"/>
	<path class="st0" d="M32.344532,2.2172277c-0.4429741-0.1442511-1.5623341-0.2131999-1.6625595,0.9895682
		c-0.1005535,1.2031891,1.2116127,1.363559,2.0143318,1.0906446C33.4498329,4.0420284,33.5418282,2.6071424,32.344532,2.2172277z"/>
	<path class="st0" d="M41.8805008,1.5491298c-0.1637039-0.1214052-0.7344589-0.1907037-0.8106613,0.4444048
		c-0.0827522,0.7008516,0.7690849,0.7593614,0.9933815,0.3706824C42.207962,2.1154649,42.1421318,1.7413886,41.8805008,1.5491298z"
		/>
	<path d="M41.7730713,9.0912695c-0.142601,0.0146523-0.2586021-0.0356169-0.3656769-0.1657295
		c-0.2860603-0.6816282-0.1720886-1.934247,0.5616112-3.507009c0.3941727-0.8457341,0.1642418-1.3620834-0.3945313-1.4733062
		c-0.4895248-0.0973818-1.2594261,0.471806-1.3979263,1.5297966c-0.1846619,1.4096923-0.1616249,2.5349035,0.0293503,3.4835653
		c0.1026115,0.5107136,0.5133286,1.3204708,0.0582504,1.8257742c-0.2200584,0.2443113-0.6720276-0.040576-0.7312202-0.1944027
		c-0.282589-0.5663481-0.4757309-2.3006468-0.2733459-4.6607585c0.2021561-2.357723,0.6589966-4.2755594-0.2880898-5.4991894
		c-0.6814003-0.8805844-1.8503456-0.3214052-1.8697739,0.8864453c-0.0186195,1.1647952,1.1846771,2.477782,1.2385521,4.2497258
		c0.0984192,3.2275319,0.651104,5.412312-0.6914139,5.7622552c-0.5782013,0.1503553-1.8846092,0.8462753-1.9630089-2.2045717
		c-0.0763283-2.9760523-1.8585968-4.3282175-2.7263298-3.5023203c-1.6749229,1.5936813,1.453289,2.7041502,1.4843941,5.1455936
		c0.0169983,1.3309755-0.0785789,3.0897551-0.0246124,4.113121c0.0382309,0.724638,0.1432762,2.8152819,0.3214493,4.6062956
		v10.5515041h6.9895821v-9.4357147c0.1082458-1.2450905,0.2660408-2.6583443,0.4532318-3.9308453
		C42.731514,12.9468689,42.9963379,8.9653492,41.7730713,9.0912695z"/>
	<path d="M47.3150711,30.0380859V4.646656h6.9202042v19.4598255h8.602562v5.9316044H47.3150711z"/>
	<path d="M84.6217422,5.6352568v7.5619287c-0.9365692-1.0406332-1.8847046-1.8095446-2.8443985-2.306736
		c-0.9599838-0.4969015-1.9659271-0.7457857-3.0178299-0.7457857c-1.9772034,0-3.584404,0.6830587-4.8216019,2.0488892
		c-1.2374802,1.3661194-1.8557892,3.1375065-1.8557892,5.3138742c0,2.0260525,0.6243744,3.7133217,1.8731384,5.0618076
		c1.2487564,1.3487759,2.850174,2.0228748,4.8042526,2.0228748c1.0753174,0,2.0751953-0.2410793,3.0004883-0.7238178
		c0.9250031-0.4824486,1.8789215-1.2701492,2.8617401-2.3633919v7.5937252
		c-1.0868835,0.521183-2.1795502,0.9206715-3.2779922,1.1987514c-0.5203171,0.1274776-1.0553741,0.2260475-1.6043091,0.2957134
		c-0.5492249,0.0690861-1.1128998,0.104063-1.6910248,0.104063c-1.4222031,0-2.7172089-0.1650562-3.8850327-0.4945908
		c-1.1681061-0.3295326-2.231575-0.8299026-3.1912689-1.5014c-1.8847046-1.2609005-3.3274231-2.8602943-4.327301-4.7984715
		c-1.0001602-1.9378891-1.5002441-4.1159897-1.5002441-6.5343037c0-1.9321079,0.3121948-3.6936674,0.9365692-5.2843895
		c0.624382-1.5907221,1.5782928-3.0400925,2.8617401-4.3478203c1.1906586-1.2265005,2.5466614-2.1491947,4.0671387-2.7680817
		c1.5201874-0.6188874,3.1999435-0.9284754,5.0383987-0.9284754c1.1446915,0,2.2486267,0.1300788,3.3126755,0.3902369
		C82.4248505,4.6900153,83.511734,5.091815,84.6217422,5.6352568z"/>
	<path d="M88.5241089,30.0380859V4.646656h6.9202118v9.8686638h9.2269363V4.646656h6.9375534v25.3914299h-6.9375534V19.7011375
		h-9.2269363v10.3369484H88.5241089z"/>
</g>
</svg>
